<svg fill="none" height="20" viewBox="0 0 20 20" width="20" xmlns="http://www.w3.org/2000/svg"><path d="m8.28276 4c-.62907 0-1.23501.23716-1.69696.66416l-3.78643 3.5c-1.07071.98972-1.07071 2.68194 0 3.67164l3.78643 3.5c.46195.427 1.06789.6642 1.69696.6642h7.21724c1.3807 0 2.5-1.1193 2.5-2.5v-7c0-1.38071-1.1193-2.5-2.5-2.5zm.86369 3.14646c.19526-.19526.51184-.19526.7071 0l2.14645 2.14645 2.1464-2.14645c.1953-.19526.5119-.19526.7072 0 .1952.19526.1952.51185 0 .70711l-2.1465 2.14643 2.1465 2.1465c.1952.1952.1952.5118 0 .7071-.1953.1952-.5119.1952-.7072 0l-2.1464-2.1465-2.14645 2.1465c-.19526.1952-.51184.1952-.7071 0-.19527-.1953-.19527-.5119 0-.7071l2.14645-2.1465-2.14645-2.14643c-.19527-.19526-.19527-.51185 0-.70711z" fill="#212121"/></svg>